<svg width="644" height="409" viewBox="0 0 644 409" fill="none" xmlns="http://www.w3.org/2000/svg">
<rect width="644" height="409" fill="white"/>
<rect x="185" y="86" width="36.3163" height="35.7608" rx="0.5" fill="black"/>
<rect x="262.471" y="86" width="36.3163" height="35.7608" rx="0.5" fill="black"/>
<rect x="221.312" y="129.423" width="36.3163" height="35.7608" rx="0.5" fill="black"/>
<rect x="185" y="170.293" width="36.3163" height="35.7608" rx="0.5" fill="black"/>
<rect x="262.471" y="170.293" width="36.3163" height="35.7608" rx="0.5" fill="black"/>
<rect x="298.792" y="208.609" width="36.3163" height="35.7608" rx="0.5" fill="black"/>
<rect x="335.11" y="246.923" width="36.3163" height="35.7608" rx="0.5" fill="black"/>
<rect x="291.533" y="285.24" width="36.3163" height="35.7608" rx="0.5" fill="black"/>
<rect x="378.682" y="285.24" width="36.3163" height="35.7608" rx="0.5" fill="black"/>
<rect x="378.682" y="208.609" width="36.3163" height="35.7608" rx="0.5" fill="black"/>
<rect x="243.108" y="285.24" width="36.3163" height="35.7608" rx="0.5" fill="black"/>
<rect x="194.681" y="285.24" width="36.3163" height="35.7608" rx="0.5" fill="black"/>
<rect x="310.892" y="86" width="36.3163" height="35.7608" rx="0.5" fill="black"/>
<rect x="359.323" y="86" width="36.3163" height="35.7608" rx="0.5" fill="black"/>
</svg>
