<svg width="307" height="118" viewBox="0 0 307 118" fill="none" xmlns="http://www.w3.org/2000/svg">
<rect width="307" height="118" fill="black"/>
<rect x="29" y="28" width="10.8949" height="9.43478" rx="0.5" fill="white"/>
<rect x="52.2412" y="28" width="10.8949" height="9.43478" rx="0.5" fill="white"/>
<rect x="39.8936" y="39.4563" width="10.8949" height="9.43478" rx="0.5" fill="white"/>
<rect x="29" y="50.239" width="10.8949" height="9.43478" rx="0.5" fill="white"/>
<rect x="52.2412" y="50.239" width="10.8949" height="9.43478" rx="0.5" fill="white"/>
<rect x="63.1377" y="60.3479" width="10.8949" height="9.43478" rx="0.5" fill="white"/>
<rect x="74.0332" y="70.4563" width="10.8949" height="9.43478" rx="0.5" fill="white"/>
<rect x="60.96" y="80.5654" width="10.8949" height="9.43478" rx="0.5" fill="white"/>
<rect x="87.1045" y="80.5654" width="10.8949" height="9.43478" rx="0.5" fill="white"/>
<rect x="87.1045" y="60.3479" width="10.8949" height="9.43478" rx="0.5" fill="white"/>
<rect x="46.4326" y="80.5654" width="10.8949" height="9.43478" rx="0.5" fill="white"/>
<rect x="31.9043" y="80.5654" width="10.8949" height="9.43478" rx="0.5" fill="white"/>
<rect x="66.7676" y="28" width="10.8949" height="9.43478" rx="0.5" fill="white"/>
<rect x="81.2969" y="28" width="10.8949" height="9.43478" rx="0.5" fill="white"/>
<path d="M141.196 76V46.9091H159.435V50.6875H145.585V59.5511H158.483V63.3153H145.585V72.2216H159.605V76H141.196ZM169.204 63.0455V76H164.957V54.1818H169.033V57.733H169.303C169.805 56.5777 170.591 55.6496 171.661 54.9489C172.741 54.2481 174.1 53.8977 175.738 53.8977C177.225 53.8977 178.527 54.2102 179.644 54.8352C180.762 55.4508 181.628 56.3693 182.244 57.5909C182.859 58.8125 183.167 60.3229 183.167 62.1222V76H178.92V62.6335C178.92 61.0521 178.508 59.8163 177.684 58.9261C176.86 58.0265 175.728 57.5767 174.289 57.5767C173.304 57.5767 172.428 57.7898 171.661 58.2159C170.904 58.642 170.302 59.267 169.857 60.0909C169.422 60.9053 169.204 61.8902 169.204 63.0455ZM199.048 54.1818V57.5909H187.13V54.1818H199.048ZM190.326 48.9545H194.573V69.5938C194.573 70.4176 194.696 71.0379 194.942 71.4545C195.189 71.8617 195.506 72.1411 195.894 72.2926C196.292 72.4347 196.723 72.5057 197.187 72.5057C197.528 72.5057 197.826 72.482 198.082 72.4347C198.337 72.3873 198.536 72.3494 198.678 72.321L199.445 75.8295C199.199 75.9242 198.849 76.0189 198.394 76.1136C197.94 76.2178 197.371 76.2746 196.69 76.2841C195.572 76.303 194.531 76.1042 193.565 75.6875C192.599 75.2708 191.817 74.6269 191.221 73.7557C190.624 72.8845 190.326 71.7907 190.326 70.4744V48.9545ZM203.746 76V54.1818H207.851V57.6477H208.078C208.476 56.4735 209.177 55.5502 210.18 54.8778C211.194 54.196 212.339 53.8551 213.618 53.8551C213.883 53.8551 214.196 53.8646 214.555 53.8835C214.925 53.9025 215.214 53.9261 215.422 53.9545V58.017C215.251 57.9697 214.948 57.9176 214.513 57.8608C214.077 57.7945 213.642 57.7614 213.206 57.7614C212.202 57.7614 211.307 57.9744 210.521 58.4006C209.745 58.8172 209.129 59.3996 208.675 60.1477C208.22 60.8864 207.993 61.7292 207.993 62.6761V76H203.746ZM227.506 76.4403C225.461 76.4403 223.676 75.9716 222.151 75.0341C220.627 74.0966 219.443 72.785 218.6 71.0994C217.757 69.4138 217.336 67.4441 217.336 65.1903C217.336 62.9271 217.757 60.9479 218.6 59.2528C219.443 57.5578 220.627 56.2415 222.151 55.304C223.676 54.3665 225.461 53.8977 227.506 53.8977C229.552 53.8977 231.337 54.3665 232.862 55.304C234.386 56.2415 235.57 57.5578 236.413 59.2528C237.255 60.9479 237.677 62.9271 237.677 65.1903C237.677 67.4441 237.255 69.4138 236.413 71.0994C235.57 72.785 234.386 74.0966 232.862 75.0341C231.337 75.9716 229.552 76.4403 227.506 76.4403ZM227.521 72.875C228.846 72.875 229.945 72.5246 230.816 71.8239C231.687 71.1231 232.331 70.1903 232.748 69.0256C233.174 67.8608 233.387 66.5777 233.387 65.1761C233.387 63.7841 233.174 62.5057 232.748 61.3409C232.331 60.1667 231.687 59.2244 230.816 58.5142C229.945 57.804 228.846 57.4489 227.521 57.4489C226.185 57.4489 225.077 57.804 224.197 58.5142C223.326 59.2244 222.677 60.1667 222.251 61.3409C221.834 62.5057 221.626 63.7841 221.626 65.1761C221.626 66.5777 221.834 67.8608 222.251 69.0256C222.677 70.1903 223.326 71.1231 224.197 71.8239C225.077 72.5246 226.185 72.875 227.521 72.875ZM242.418 84.1818V54.1818H246.565V57.7188H246.92C247.167 57.2642 247.522 56.7386 247.986 56.142C248.45 55.5455 249.094 55.0246 249.918 54.5795C250.741 54.125 251.83 53.8977 253.185 53.8977C254.946 53.8977 256.518 54.3428 257.901 55.233C259.283 56.1231 260.367 57.4062 261.153 59.0824C261.949 60.7585 262.347 62.7756 262.347 65.1335C262.347 67.4915 261.954 69.5133 261.168 71.1989C260.382 72.875 259.302 74.1676 257.929 75.0767C256.556 75.9763 254.989 76.4261 253.227 76.4261C251.902 76.4261 250.817 76.2036 249.974 75.7585C249.141 75.3134 248.488 74.7926 248.014 74.196C247.541 73.5994 247.176 73.0691 246.92 72.6051H246.665V84.1818H242.418ZM246.58 65.0909C246.58 66.625 246.802 67.9697 247.247 69.125C247.692 70.2803 248.336 71.1847 249.179 71.8381C250.022 72.482 251.054 72.804 252.276 72.804C253.545 72.804 254.605 72.4678 255.457 71.7955C256.31 71.1136 256.954 70.1903 257.389 69.0256C257.834 67.8608 258.057 66.5492 258.057 65.0909C258.057 63.6515 257.839 62.3589 257.403 61.2131C256.977 60.0672 256.333 59.1629 255.472 58.5C254.619 57.8371 253.554 57.5057 252.276 57.5057C251.045 57.5057 250.003 57.8229 249.151 58.4574C248.308 59.0919 247.669 59.9773 247.233 61.1136C246.797 62.25 246.58 63.5758 246.58 65.0909ZM267.105 76V54.1818H271.352V76H267.105ZM269.25 50.8153C268.511 50.8153 267.877 50.5691 267.347 50.0767C266.826 49.5748 266.565 48.9782 266.565 48.2869C266.565 47.5862 266.826 46.9896 267.347 46.4972C267.877 45.9953 268.511 45.7443 269.25 45.7443C269.989 45.7443 270.618 45.9953 271.139 46.4972C271.67 46.9896 271.935 47.5862 271.935 48.2869C271.935 48.9782 271.67 49.5748 271.139 50.0767C270.618 50.5691 269.989 50.8153 269.25 50.8153Z" fill="white"/>
</svg>
